# File created by Blade
# Date/Time:  Wed Jan 21 19:03:17 2015
#---------------------------------------------------------
:version 1.10
:name HOM
:units
  mass 1.0
  length 1.000000
  angle deg
:documentation
     Acclaim Skeleton File
:root
   axis xyz
   order TX TY TZ RX RY RZ
   position 0.000000 0.000000 0.000000
   orientation 0 0 0
:bonedata
   begin
      id 1
      name RightUpLeg_dum
      direction -1.000000 0.000000 0.000000
      length 3.693983
      axis 0.0 0.0 0.0 xyz
   end
   begin
      id 2
      name LeftUpLeg_dum
      direction 1.000000 0.000000 0.000000
      length 3.693983
      axis 0.0 0.0 0.0 xyz
   end
   begin
      id 3
      name Spine_dum
      direction 0.000000 1.000000 0.000000
      length 2.392956
      axis 0.0 0.0 0.0 xyz
   end
   begin
      id 4
      name RightUpLeg
      direction 0.000000 -1.000000 0.000000
      length 15.795667
      axis 0.0 0.0 0.0 xyz
      dof rx ry rz
   end
   begin
      id 5
      name RightLeg
      direction 0.000000 -1.000000 0.000000
      length 14.766989
      axis 0.0 0.0 0.0 xyz
      dof rx ry rz
   end
   begin
      id 6
      name RightFoot
      direction 0.000000 -0.258819 0.965926
      length 4.962790
      axis 15.0 0.0 0.0 xyz
      dof rx ry rz
   end
   begin
      id 7
      name RightToeBase
      direction 0.000000 0.000000 1.000000
      length 2.952750
      axis 0.0 0.0 0.0 xyz
      dof rx ry rz
   end
   begin
      id 8
      name LeftUpLeg
      direction 0.000000 -1.000000 0.000000
      length 15.795667
      axis 0.0 0.0 0.0 xyz
      dof rx ry rz
   end
   begin
      id 9
      name LeftLeg
      direction 0.000000 -1.000000 0.000000
      length 14.766989
      axis 0.0 0.0 0.0 xyz
      dof rx ry rz
   end
   begin
      id 10
      name LeftFoot
      direction 0.000000 -0.258819 0.965926
      length 4.962790
      axis 15.0 0.0 0.0 xyz
      dof rx ry rz
   end
   begin
      id 11
      name LeftToeBase
      direction 0.000000 0.000000 1.000000
      length 2.952750
      axis 0.0 0.0 0.0 xyz
      dof rx ry rz
   end
   begin
      id 12
      name Spine
      direction 0.000000 1.000000 0.000000
      length 0.000000
      axis 0.0 0.0 0.0 xyz
      dof rx ry rz
   end
   begin
      id 13
      name Spine_dum1
      direction 0.000000 1.000000 0.000000
      length 13.207411
      axis 0.0 0.0 0.0 xyz
   end
   begin
      id 14
      name Spine_dum2
      direction 0.000000 1.000000 0.000000
      length 13.207411
      axis 0.0 0.0 0.0 xyz
   end
   begin
      id 15
      name Spine_dum3
      direction 0.000000 1.000000 0.000000
      length 19.250100
      axis 0.0 0.0 0.0 xyz
   end
   begin
      id 16
      name RightShoulder
      direction -1.000000 0.000000 0.000000
      length 8.140465
      axis 0.0 0.0 90.0 xyz
      dof rx ry rz
   end
   begin
      id 17
      name RightArm
      direction -1.000000 0.000000 0.000000
      length 10.649840
      axis 0.0 0.0 90.0 xyz
      dof rx ry rz
   end
   begin
      id 18
      name RightForeArm
      direction -1.000000 0.000000 0.000000
      length 8.304624
      axis 0.0 0.0 90.0 xyz
      dof ry rz rx
   end
   begin
      id 19
      name RightHand
      direction -1.000000 0.000000 0.000000
      length 0.000000
      axis 0.0 0.0 90.0 xyz
      dof rx ry rz
   end
   begin
      id 20
      name RightHand_dum1
      direction -1.000000 0.000000 0.000000
      length 3.937000
      axis 0.0 0.0 90.0 xyz
   end
   begin
      id 21
      name RightHand_dum2
      direction 0.000000 0.000000 0.000000
      length 0.000000
      axis 0.0 0.0 90.0 xyz
   end
   begin
      id 22
      name RightHandThumb1
      direction 0.000000 0.000000 1.000000
      length 3.937000
      axis 0.0 0.0 90.0 xyz
      dof rx rz ry
   end
   begin
      id 23
      name LeftShoulder
      direction 1.000000 0.000000 0.000000
      length 8.140465
      axis 0.0 0.0 -90.0 xyz
      dof rx ry rz
   end
   begin
      id 24
      name LeftArm
      direction 1.000000 0.000000 0.000000
      length 10.649840
      axis 0.0 0.0 -90.0 xyz
      dof rx ry rz
   end
   begin
      id 25
      name LeftForeArm
      direction 1.000000 0.000000 0.000000
      length 8.304624
      axis 0.0 0.0 -90.0 xyz
      dof ry rz rx
   end
   begin
      id 26
      name LeftHand
      direction 1.000000 0.000000 0.000000
      length 0.000000
      axis 0.0 0.0 -90.0 xyz
      dof rx ry rz
   end
   begin
      id 27
      name LeftHand_dum1
      direction 1.000000 0.000000 0.000000
      length 3.937000
      axis 0.0 0.0 -90.0 xyz
   end
   begin
      id 28
      name LeftHand_dum2
      direction 0.000000 0.000000 0.000000
      length 0.000000
      axis 0.0 0.0 -90.0 xyz
   end
   begin
      id 29
      name LeftHandThumb1
      direction 0.000000 0.000000 1.000000
      length 3.937000
      axis 0.0 0.0 -90.0 xyz
      dof rx rz ry
   end
   begin
      id 30
      name Head
      direction 0.000000 1.000000 0.000000
      length 4.527550
      axis 0.0 0.0 0.0 xyz
      dof rx ry rz
   end
:hierarchy
   begin
      root RightUpLeg_dum LeftUpLeg_dum Spine_dum
      RightUpLeg_dum RightUpLeg
      LeftUpLeg_dum LeftUpLeg
      Spine_dum Spine
      RightUpLeg RightLeg
      RightLeg RightFoot
      RightFoot RightToeBase
      LeftUpLeg LeftLeg
      LeftLeg LeftFoot
      LeftFoot LeftToeBase
      Spine Spine_dum1 Spine_dum2 Spine_dum3
      Spine_dum1 RightShoulder
      Spine_dum2 LeftShoulder
      Spine_dum3 Head
      RightShoulder RightArm
      RightArm RightForeArm
      RightForeArm RightHand
      RightHand RightHand_dum1 RightHand_dum2
      RightHand_dum2 RightHandThumb1
      LeftShoulder LeftArm
      LeftArm LeftForeArm
      LeftForeArm LeftHand
      LeftHand LeftHand_dum1 LeftHand_dum2
      LeftHand_dum2 LeftHandThumb1
   end

# File created by Blade
# Date/Time:  Wed Jan 21 19:03:07 2015
# Frame Rate: 120.000 fps
#------------------------------------------------------
:FULLY-SPECIFIED
:DEGREES
1015
root -4.502816 29.584157 -7.511060 115.261249 -30.102507 5.878269
RightUpLeg -130.269133 -16.836261 20.722260
RightLeg -11.648447 -0.000000 0.000000
RightFoot 11.039903 5.029212 35.086680
RightToeBase 24.436246 -0.000000 -0.000000
LeftUpLeg -102.065463 8.421785 -25.345479
LeftLeg -4.824695 -0.000000 0.000000
LeftFoot -7.057395 7.473783 -21.339965
LeftToeBase 5.963960 -0.000000 -0.000000
Spine 28.680531 -26.823884 24.886391
RightShoulder 13.997044 10.295155 -48.628245
RightArm 63.113930 22.494749 93.015193
RightForeArm 72.409344 -0.000000 111.574487
RightHand 12.840106 -0.000000 -9.682590
RightHandThumb1 -24.326973 -0.000000 -32.862282
LeftShoulder 19.477342 9.375447 27.427838
LeftArm 97.674396 -19.514535 -88.179388
LeftForeArm -34.943620 -0.000000 103.112566
LeftHand -21.675509 -0.000000 18.346861
LeftHandThumb1 -26.253704 0.000000 33.147579
Head 24.926640 7.564984 -37.978819
1016
root -4.497302 29.588574 -7.524300 115.273204 -30.026118 5.903027
RightUpLeg -130.305211 -16.891669 20.700928
RightLeg -11.585685 -0.000000 0.000000
RightFoot 11.008373 4.945020 34.997457
RightToeBase 24.135191 -0.000000 -0.000000
LeftUpLeg -102.128682 8.399930 -25.298989
LeftLeg -4.835734 -0.000000 0.000000
LeftFoot -7.011054 7.484183 -21.301228
LeftToeBase 5.949306 -0.000000 -0.000000
Spine 28.567617 -26.740354 24.891674
RightShoulder 14.007967 10.336571 -48.601372
RightArm 62.794708 22.594471 92.960779
RightForeArm 72.438324 -0.000000 111.510217
RightHand 12.883025 -0.000000 -9.668822
RightHandThumb1 -24.326973 -0.000000 -32.862282
LeftShoulder 19.480243 9.303981 27.482120
LeftArm 97.489122 -19.519969 -87.967143
LeftForeArm -34.997749 0.000000 102.891311
LeftHand -21.539818 -0.000000 18.262014
LeftHandThumb1 -26.253704 0.000000 33.147579
Head 24.928514 7.681352 -37.831742
1017
root -4.490193 29.592297 -7.536398 115.266677 -29.951841 5.936906
RightUpLeg -130.331474 -16.958720 20.694691
RightLeg -11.533399 -0.000000 0.000000
RightFoot 10.914606 4.849574 34.793954
RightToeBase 24.279311 -0.000000 -0.000000
LeftUpLeg -102.174902 8.375121 -25.258178
LeftLeg -4.843634 -0.000000 0.000000
LeftFoot -6.963905 7.456887 -21.285601
LeftToeBase 5.918671 -0.000000 -0.000000
Spine 28.475642 -26.698201 24.903188
RightShoulder 13.994196 10.368078 -48.646712
RightArm 62.497312 22.668895 92.957171
RightForeArm 72.475896 -0.000000 111.453732
RightHand 12.928634 -0.000000 -9.595472
RightHandThumb1 -24.326973 -0.000000 -32.862282
LeftShoulder 19.453877 9.267417 27.516953
LeftArm 97.343486 -19.514163 -87.810174
LeftForeArm -35.052886 -0.000000 102.702490
LeftHand -21.428182 -0.000000 18.108643
LeftHandThumb1 -26.253704 0.000000 33.147579
Head 24.851358 7.829255 -37.806720
1018
root -4.482400 29.596419 -7.548969 115.291855 -29.878127 5.954394
RightUpLeg -130.366643 -17.021484 20.669322
RightLeg -11.489079 -0.000000 0.000000
RightFoot 10.844018 4.759413 34.731511
RightToeBase 24.413436 -0.000000 -0.000000
LeftUpLeg -102.243000 8.354686 -25.201888
LeftLeg -4.858234 -0.000000 0.000000
LeftFoot -6.928281 7.479119 -21.249808
LeftToeBase 5.894906 -0.000000 -0.000000
Spine 28.352694 -26.633170 24.906136
RightShoulder 14.009881 10.421593 -48.649738
RightArm 62.200957 22.756957 92.917540
RightForeArm 72.528356 -0.000000 111.338192
RightHand 12.841148 -0.000000 -9.375357
RightHandThumb1 -24.326973 -0.000000 -32.862282
LeftShoulder 19.437983 9.262520 27.524141
LeftArm 97.302892 -19.529980 -87.643453
LeftForeArm -35.089166 -0.000000 102.370083
LeftHand -21.612150 -0.000000 17.608613
LeftHandThumb1 -26.253704 0.000000 33.147579
Head 24.799760 7.868910 -37.662815
1019
root -4.475222 29.599847 -7.562608 115.304052 -29.797656 5.978043
RightUpLeg -130.409582 -17.031451 20.677261
RightLeg -11.430377 -0.000000 0.000000
RightFoot 10.708201 4.610328 34.596670
RightToeBase 24.559423 -0.000000 -0.000000
LeftUpLeg -102.313068 8.336447 -25.163009
LeftLeg -4.858345 -0.000000 0.000000
LeftFoot -6.901429 7.452943 -21.237383
LeftToeBase 5.941880 -0.000000 -0.000000
Spine 28.247460 -26.587445 24.913666
RightShoulder 13.997128 10.493806 -48.676791
RightArm 61.873222 22.819030 92.875863
RightForeArm 72.569823 -0.000000 111.252069
RightHand 12.893748 -0.000000 -9.310036
RightHandThumb1 -24.326973 -0.000000 -32.862282
LeftShoulder 19.392043 9.208255 27.527323
LeftArm 97.112195 -19.512084 -87.454259
LeftForeArm -35.026479 -0.000000 102.132981
LeftHand -21.382408 -0.000000 17.458067
LeftHandThumb1 -26.253704 0.000000 33.147579
Head 24.667235 8.086444 -37.675757
1020
root -4.467331 29.602946 -7.577026 115.310762 -29.715291 6.009072
RightUpLeg -130.437560 -17.107789 20.641426
RightLeg -11.361080 -0.000000 0.000000
RightFoot 10.560270 4.489986 34.488136
RightToeBase 24.524805 -0.000000 -0.000000
LeftUpLeg -102.384270 8.317760 -25.096629
LeftLeg -4.845026 -0.000000 0.000000
LeftFoot -6.878057 7.432460 -21.219959
LeftToeBase 5.919418 -0.000000 -0.000000
Spine 28.128986 -26.541855 24.918675
RightShoulder 14.035946 10.549937 -48.681061
RightArm 61.540480 22.934855 92.836294
RightForeArm 72.618580 -0.000000 111.171251
RightHand 13.002769 -0.000000 -9.252241
RightHandThumb1 -24.326973 -0.000000 -32.862282
LeftShoulder 19.391054 9.168521 27.595801
LeftArm 96.869173 -19.487591 -87.320845
LeftForeArm -34.910484 -0.000000 101.974114
LeftHand -20.949849 -0.000000 17.599554
LeftHandThumb1 -26.253704 0.000000 33.147579
Head 24.603921 8.117375 -37.562327
1021
root -4.460450 29.606211 -7.591051 115.307939 -29.627087 6.044281
RightUpLeg -130.430725 -17.218993 20.596758
RightLeg -11.347639 -0.000000 0.000000
RightFoot 10.463876 4.303088 34.552407
RightToeBase 24.596971 -0.000000 -0.000000
LeftUpLeg -102.444613 8.304984 -25.014427
LeftLeg -4.835912 -0.000000 0.000000
LeftFoot -6.859610 7.432082 -21.216801
LeftToeBase 5.965176 -0.000000 -0.000000
Spine 28.034313 -26.470843 24.931215
RightShoulder 14.027383 10.602625 -48.677125
RightArm 61.191887 23.042782 92.778679
RightForeArm 72.664901 -0.000000 111.101425
RightHand 13.087409 -0.000000 -9.220667
RightHandThumb1 -24.326973 -0.000000 -32.862282
LeftShoulder 19.352157 9.121758 27.635827
LeftArm 96.781451 -19.363586 -87.236750
LeftForeArm -34.748974 -0.000000 101.591536
LeftHand -21.383413 -0.000000 17.060526
LeftHandThumb1 -26.253704 0.000000 33.147579
Head 24.463006 8.251179 -37.450450
1022
root -4.447196 29.611045 -7.602246 115.337794 -29.564884 6.069383
RightUpLeg -130.535412 -17.316077 20.595863
RightLeg -11.207227 -0.000000 0.000000
RightFoot 10.506833 4.385076 34.411045
RightToeBase 24.216713 -0.000000 -0.000000
LeftUpLeg -102.515583 8.263193 -24.959359
LeftLeg -4.839960 -0.000000 0.000000
LeftFoot -6.847610 7.437788 -21.205580
LeftToeBase 5.970670 -0.000000 -0.000000
Spine 27.906122 -26.416758 24.938461
RightShoulder 14.004543 10.671092 -48.714122
RightArm 60.848835 23.151616 92.747901
RightForeArm 72.679427 -0.000000 111.012705
RightHand 13.101321 -0.000000 -9.248643
RightHandThumb1 -24.326973 -0.000000 -32.862282
LeftShoulder 19.305803 9.001577 27.672161
LeftArm 96.518668 -19.311686 -87.086373
LeftForeArm -34.607643 -0.000000 101.268056
LeftHand -21.037995 -0.000000 16.769211
LeftHandThumb1 -26.253704 0.000000 33.147579
Head 24.287622 8.279128 -37.353667
